<svg width="111" height="100" viewBox="0 0 111 100" fill="none" xmlns="http://www.w3.org/2000/svg">
<g clip-path="url(#clip0_3_42)">
<path d="M108.13 58.27L88.82 91.72C87.3675 94.2358 85.2788 96.3252 82.7636 97.7785C80.2483 99.2319 77.395 99.998 74.49 100H35.86C32.7781 99.9986 29.7579 99.1362 27.14 97.51C86.56 97.51 82.65 50 82.65 50C82.6516 48.869 82.4298 47.7488 81.9973 46.7037C81.5649 45.6586 80.9303 44.7092 80.13 43.91L61.26 25C59.6439 23.3867 57.4536 22.4805 55.17 22.4805C52.8864 22.4805 50.6962 23.3867 49.08 25L30.22 43.91C28.9404 45.1787 28.0965 46.8209 27.81 48.6C27.75 40.49 30.31 2.6 83.37 2.6C85.6128 4.02626 87.4761 5.97533 88.8 8.28L108.11 41.73C109.568 44.2416 110.337 47.0933 110.341 49.9973C110.344 52.9013 109.582 55.7548 108.13 58.27Z" fill="#FA7C1F"/>
<path d="M27.81 48.6C27.5876 49.9501 27.6903 51.3338 28.1094 52.6364C28.5285 53.939 29.252 55.1229 30.22 56.09L49.08 75C50.6961 76.6133 52.8864 77.5195 55.17 77.5195C57.4536 77.5195 59.6438 76.6133 61.26 75L80.13 56.09C80.9303 55.2908 81.5649 54.3414 81.9973 53.2963C82.4297 52.2512 82.6516 51.131 82.65 50C82.65 50 86.56 97.51 27.14 97.51C24.8195 96.0742 22.8918 94.0847 21.53 91.72L2.21998 58.27C0.76535 55.7566 -0.000610352 52.904 -0.000610352 50C-0.000610352 47.096 0.76535 44.2434 2.21998 41.73L21.53 8.28C22.9825 5.76423 25.0712 3.67481 27.5864 2.22146C30.1017 0.768119 32.955 0.0019968 35.86 0L74.49 0C77.6439 0.000407066 80.7319 0.902524 83.39 2.6C30.31 2.6 27.75 40.49 27.81 48.6Z" fill="#333333"/>
</g>
<defs>
<clipPath id="clip0_3_42">
<rect width="110.35" height="100" fill="white"/>
</clipPath>
</defs>
</svg>
