<svg width="141" height="123" viewBox="0 0 141 123" fill="none" xmlns="http://www.w3.org/2000/svg">
<g clip-path="url(#clip0_3_53)">
<path d="M83.23 1.82819e-06H104.37C104.803 -0.0460277 105.24 0.0425547 105.621 0.253694C106.002 0.464833 106.309 0.788275 106.5 1.18C117.833 20.8933 129.203 40.5833 140.61 60.25C140.813 60.544 140.922 60.8928 140.922 61.25C140.922 61.6072 140.813 61.956 140.61 62.25C129.69 81.1233 118.783 100 107.89 118.88C107.19 120.08 107.17 120.07 106.46 118.88C103.37 113.52 100.29 108.16 97.16 102.82C96.9143 102.479 96.7821 102.07 96.7821 101.65C96.7821 101.23 96.9143 100.821 97.16 100.48C104.387 87.9133 111.643 75.3333 118.93 62.74C119.247 62.3041 119.418 61.779 119.418 61.24C119.418 60.701 119.247 60.1759 118.93 59.74C111.17 46.4067 103.453 33.0433 95.78 19.65C95.6032 19.279 95.3163 18.9714 94.9584 18.7692C94.6006 18.567 94.1891 18.48 93.78 18.52H72.2C71.8568 18.5589 71.5101 18.489 71.2087 18.3204C70.9073 18.1518 70.6664 17.8928 70.52 17.58C67.4 12.11 64.23 6.66 61.09 1.2C60.4 0.100002 60.44 1.82819e-06 61.75 1.82819e-06H83.23Z" fill="#333333"/>
<path d="M57.62 122.44H36.36C35.9453 122.476 35.5297 122.382 35.1712 122.17C34.8127 121.958 34.5291 121.64 34.36 121.26C25.92 106.593 17.4633 91.9267 8.99 77.26C6.14 72.38 3.33 67.47 0.439998 62.59C0.169996 62.2139 0.0214585 61.7642 0.0143089 61.3013C0.00715925 60.8383 0.141739 60.3843 0.399998 60C8.7 45.6933 16.9733 31.3833 25.22 17.07C27.8333 12.5633 30.4267 8.04333 33 3.51C33.64 2.4 33.68 2.41 34.3 3.51C37.5 9.03 40.68 14.51 43.89 20.06C44.0703 20.3161 44.1671 20.6217 44.1671 20.935C44.1671 21.2483 44.0703 21.5539 43.89 21.81C37.2567 33.23 30.6267 44.6767 24 56.15C23.2 57.57 22.4 59 21.55 60.4C21.3761 60.638 21.2824 60.9252 21.2824 61.22C21.2824 61.5148 21.3761 61.802 21.55 62.04C29.47 75.7067 37.3733 89.3967 45.26 103.11C45.4221 103.42 45.6766 103.673 45.9883 103.832C46.3 103.991 46.6535 104.05 47 104H68.59C68.9972 103.945 69.4112 104.023 69.7712 104.221C70.1312 104.419 70.4182 104.727 70.59 105.1C73.68 110.54 76.82 115.96 79.95 121.39C80.52 122.39 80.47 122.47 79.3 122.47L57.62 122.44Z" fill="#FA7C1F"/>
<path d="M57.6 99.29H49.66C49.2958 99.3321 48.9276 99.2581 48.6079 99.0785C48.2882 98.8989 48.0335 98.623 47.88 98.29C42.26 88.55 36.6333 78.8067 31 69.06C29.67 66.77 28.37 64.47 27 62.2C26.8092 61.9311 26.7068 61.6096 26.7068 61.28C26.7068 60.9504 26.8092 60.6289 27 60.36C33.4333 49.24 39.86 38.12 46.28 27C46.3829 26.8424 46.4764 26.6787 46.56 26.51C46.96 25.7 47.28 25.88 47.67 26.51C49.84 30.3 52.03 34.07 54.21 37.85C54.75 38.78 55.21 39.76 55.85 40.65C56.0859 40.9549 56.214 41.3295 56.214 41.715C56.214 42.1005 56.0859 42.4751 55.85 42.78C52.54 48.45 49.3 54.16 45.96 59.78C45.6503 60.2057 45.4834 60.7186 45.4834 61.245C45.4834 61.7714 45.6503 62.2843 45.96 62.71C52.7533 74.3833 59.5167 86.05 66.25 97.71C67.12 99.22 67.12 99.23 65.43 99.23L57.6 99.29Z" fill="#FA7C1F"/>
<path d="M83.23 23.2H91.17C91.547 23.167 91.925 23.2511 92.2525 23.4408C92.58 23.6305 92.841 23.9166 93 24.26C99.64 35.83 106.28 47.4 113 58.9C113.502 59.577 113.773 60.3973 113.773 61.24C113.773 62.0827 113.502 62.903 113 63.58C106.78 74.27 100.61 85 94.4 95.78C93.79 96.84 93.68 96.85 93.07 95.78C90.34 91.07 87.63 86.35 84.89 81.65C84.7119 81.3948 84.6164 81.0912 84.6164 80.78C84.6164 80.4688 84.7119 80.1652 84.89 79.91C88.33 74.02 91.73 68.11 95.18 62.22C95.3783 61.9373 95.4848 61.6003 95.4848 61.255C95.4848 60.9097 95.3783 60.5727 95.18 60.29C88.3466 48.5233 81.5333 36.76 74.74 25C74.46 24.51 73.81 24 74.15 23.43C74.49 22.86 75.15 23.26 75.74 23.25C78.24 23.19 80.73 23.2 83.23 23.2Z" fill="#333333"/>
<path d="M46.57 -1.84542e-06H53.84C54.1889 -0.0264739 54.5375 0.0553588 54.8381 0.234328C55.1388 0.413297 55.3769 0.680685 55.52 0.999998C64.1533 15.9933 72.7933 30.9733 81.44 45.94C84.2 50.72 86.95 55.51 89.74 60.27C89.9384 60.5527 90.0448 60.8897 90.0448 61.235C90.0448 61.5803 89.9384 61.9173 89.74 62.2C87.26 66.41 84.84 70.65 82.39 74.88C81.73 76.02 81.64 76.02 81 74.88C70.6333 56.92 60.2567 38.96 49.87 21C46.09 14.4333 42.3033 7.87333 38.51 1.32C37.79 0.0799983 37.83 -1.84542e-06 39.3 -1.84542e-06H46.57Z" fill="#FA7C1F"/>
<path d="M94.29 122.44H87.02C86.6702 122.473 86.3191 122.393 86.0172 122.214C85.7153 122.034 85.4782 121.763 85.34 121.44C79.0067 110.433 72.6733 99.4333 66.34 88.44C61.34 79.76 56.34 71.07 51.27 62.44C51.0167 62.0855 50.8806 61.6607 50.8806 61.225C50.8806 60.7893 51.0167 60.3645 51.27 60.01C53.69 55.9 56.05 51.75 58.44 47.63C59.16 46.39 59.18 46.39 59.87 47.63L97 111.87C98.8133 114.997 100.617 118.13 102.41 121.27C103.06 122.4 103.04 122.43 101.69 122.43L94.29 122.44Z" fill="#333333"/>
</g>
<defs>
<clipPath id="clip0_3_53">
<rect width="140.91" height="122.46" fill="white"/>
</clipPath>
</defs>
</svg>
