<svg width="164" height="164" viewBox="0 0 164 164" fill="none" xmlns="http://www.w3.org/2000/svg">
<g clip-path="url(#clip0_3_61)">
<path d="M74.55 36.69V42.69C74.55 43.61 74.18 43.96 73.31 44.18C57.76 48.18 47.89 57.92 44.06 73.46C38.78 95 54.36 117.3 76.35 120C96.48 122.51 114.24 110.52 119.35 90.92C119.72 89.48 120.23 88.92 121.82 88.92C125.41 89.06 129 89 132.59 88.92C133.92 88.92 134.39 89.17 134.13 90.65C132.346 101.088 127.479 110.754 120.156 118.405C112.834 126.055 103.39 131.339 93.039 133.578C82.6885 135.817 71.9048 134.908 62.0751 130.968C52.2453 127.028 43.819 120.238 37.88 111.47C17.68 82.02 32.47 40.76 66.78 30.81C68.9142 30.1965 71.0809 29.7024 73.27 29.33C74.34 29.15 74.6 29.54 74.6 30.46V36.61L74.55 36.69Z" fill="#333333"/>
<path d="M105.53 81.76C106.17 93.98 95.53 105.91 81.43 105.7C78.2894 105.624 75.1945 104.931 72.3219 103.66C69.4493 102.388 66.8553 100.563 64.6879 98.2889C62.5206 96.0148 60.8224 93.3361 59.6904 90.4057C58.5583 87.4753 58.0145 84.3506 58.09 81.21C58.1655 78.0694 58.8588 74.9745 60.1304 72.1019C61.402 69.2293 63.227 66.6353 65.5011 64.468C67.7752 62.3006 70.4539 60.6025 73.3843 59.4704C76.3147 58.3383 79.4394 57.7945 82.58 57.87C96.32 58.3 106.15 70.47 105.53 81.76Z" fill="#FA7C1F"/>
<path d="M89.09 156.21C89.09 154.38 89.17 152.55 89.09 150.74C89.02 149.57 89.42 149.19 90.56 149.04C98.3928 148.13 105.985 145.756 112.94 142.04C132.37 131.54 144.31 115.45 148.57 93.73C148.795 92.6718 148.945 91.5992 149.02 90.52C149.08 89.33 149.6 89.03 150.74 89.05C154.39 89.12 158.04 89.05 161.69 89.05C163.62 89.05 163.76 89.14 163.5 91.27C162.853 96.7564 161.667 102.166 159.96 107.42C157.247 115.765 153.209 123.618 148 130.68C143.465 136.813 138.119 142.303 132.11 147C123.342 153.818 113.262 158.754 102.5 161.5C98.6502 162.524 94.7242 163.237 90.76 163.63C89.52 163.75 88.98 163.42 89.06 162.07C89.16 160.14 89.06 158.19 89.06 156.26L89.09 156.21Z" fill="#333333"/>
<path d="M89 7.16999V1.16999C89 0.169995 89.37 -0.0900051 90.33 0.00999493C104.36 1.53262 117.767 6.61699 129.278 14.7801C140.789 22.9432 150.022 33.9139 156.1 46.65C160.175 55.084 162.718 64.1755 163.61 73.5C163.7 74.38 163.47 74.75 162.54 74.75H150.54C149.54 74.75 149.05 74.32 148.91 73.25C147.863 64.5409 145.102 56.1254 140.785 48.4892C136.469 40.8531 130.682 34.1477 123.76 28.76C114.449 21.2298 103.235 16.4256 91.36 14.88C89.06 14.58 89.03 14.58 89.03 12.3V7.16999H89ZM7.12002 89C8.94002 89 10.77 89.09 12.59 89C13.95 88.91 14.5 89.37 14.66 90.74C15.7756 100.229 19.0159 109.345 24.14 117.41C34.66 133.94 49.49 144.35 68.76 148.31C70.26 148.62 71.76 148.87 73.29 149.05C74.13 149.15 74.49 149.48 74.49 150.34V162.34C74.49 163.34 74.04 163.58 73.12 163.48C66.7797 162.782 60.5375 161.377 54.51 159.29C50.4918 157.888 46.5953 156.159 42.86 154.12C38.8219 151.932 34.972 149.414 31.35 146.59C25.3117 141.947 19.9647 136.469 15.47 130.32C10.7433 123.837 6.99644 116.694 4.35002 109.12C2.29088 103.15 0.833635 96.9896 2.05506e-05 90.73C-0.159979 89.22 0.340021 89 1.65002 89C3.47002 89.11 5.30002 89.05 7.12002 89Z" fill="#FA7C1F"/>
<path d="M7.08 74.43C5.2 74.43 3.32 74.38 1.44 74.43C0.259998 74.48 -2.5332e-06 74 0.129997 72.91C1.7174 57.6826 7.61471 43.2238 17.13 31.23C23.8946 22.5569 32.3421 15.3401 41.9652 10.013C51.5884 4.68594 62.1888 1.35833 73.13 0.230009C74.13 0.120009 74.5 0.420009 74.46 1.39001C74.31 4.90001 74.76 8.39001 74.24 11.94C74.15 12.57 74.9 13.47 74.24 13.82C73.1555 14.3737 71.986 14.7421 70.78 14.91C58.566 16.793 47.1294 22.0781 37.78 30.16C28.5224 38.1012 21.538 48.3569 17.54 59.88C16.0575 64.0121 15.051 68.2998 14.54 72.66C14.39 74.01 13.93 74.55 12.54 74.46C10.72 74.34 8.9 74.46 7.07 74.46L7.08 74.43Z" fill="#333333"/>
<path d="M89 36.53V30.38C89 29.38 89.24 29.11 90.31 29.33C112.2 33.69 126.41 46.56 133.09 67.81C133.65 69.59 133.92 71.47 134.32 73.3C134.54 74.3 134.24 74.78 133.12 74.77C129.19 74.77 125.26 74.71 121.33 74.77C119.97 74.77 119.61 74.06 119.33 72.94C117.327 64.1498 112.244 56.367 105 51C100.775 47.7705 95.8938 45.5042 90.7 44.36C89.4 44.08 88.9 43.55 88.97 42.21C89.05 40.29 89 38.41 89 36.53Z" fill="#FA7C1F"/>
</g>
<defs>
<clipPath id="clip0_3_61">
<rect width="163.63" height="163.6" fill="white"/>
</clipPath>
</defs>
</svg>
