<svg xmlns="http://www.w3.org/2000/svg" viewBox="0 0 125.2 125.83">
  <title>&#x8D44;&#x6E90; 92</title>
  <path d="M83 27.06h23.77l15.57-27H98.56L83 27.06z" fill="#fa7c1f"/>
  <path d="M94.45 79.58v.15q-.47.82-1 1.62l-.45.75c-.25.39-.5.77-.76 1.14a35.64 35.64 0 0 1-63-31.83C36.48 32.28 52 27.22 63.08 27.28c0 0 4.27-.1 11.47-.17L90.13.12H66.84Q64.91 0 62.94 0A62.86 62.86 0 0 0 5.25 37.85v-.11A62.48 62.48 0 0 0 2.34 46v.1a62.92 62.92 0 0 0 55 79.5c1.95.18 3.91.26 5.86.26h3.09a61.73 61.73 0 0 0 39.21-16.44l.13-.12.24-.22a63.1 63.1 0 0 0 12.34-15.85C123.87 83 126 76.91 125 64.92c-.61-7.4-7-12.7-14.51-12.7H43.54L58 79.58h36.45z" fill="currentColor"/>
</svg>
